# xmcd CD database file
#
# Track frame offsets:
#	150
#	31795
#	48841
#	62709
#	86354
#	104224
#	117942
#	140255
#	161162
#	180093
#	200368
#	218595
#	236679
#
# Disc length: 3391 seconds
#
# Revision: 0
# Processed by: cddbd v1.5.2PL0 Copyright (c) Steve Scherf et al.
# Submitted via: jetAudio 7
#
DISCID=a80d3d0d
DTITLE=徹夜未眠II - 徹夜未眠II
DYEAR=1900
DGENRE=장르 없음
TTITLE0=加州旅馆
TTITLE1=漫步在雲端
TTITLE2=少女的祈禱
TTITLE3=和蘭花在一起
TTITLE4=勃拉姆斯小夜曲
TTITLE5=西班牙斗牛士
TTITLE6=在你背後
TTITLE7=柳瀨的小鎭
TTITLE8=莫扎特小夜曲
TTITLE9=自始至今
TTITLE10=橄欖樹
TTITLE11=牵挂
TTITLE12=同桌的你
EXTD=
EXTT0=
EXTT1=
EXTT2=
EXTT3=
EXTT4=
EXTT5=
EXTT6=
EXTT7=
EXTT8=
EXTT9=
EXTT10=
EXTT11=
EXTT12=
PLAYORDER=
